# xmcd
#
# Track frame offsets:
#	150
#	16860
#	31415
#	48296
#	61341
#	73412
#	87805
#	101412
#	117143
#	135811
#	151706
#	167327
#
# Disc length: 2437 seconds
#
# Revision: 1
# Processed by: cddbd v1.5.2PL0 Copyright (c) Steve Scherf et al.
# Submitted via: audiograbber 1.83.01
#
DISCID=8509830c
DTITLE=Hank Williams Jr. - Old School New Rules
DYEAR=2012
DGENRE=Country
TTITLE0=Taken Back the Country
TTITLE1=I'm Gonna Get Drunk and Play Hank Williams
TTITLE2=Three Day Trip
TTITLE3=Old School
TTITLE4=We Don't Appologize for America
TTITLE5=You Win Again
TTITLE6=The Cow Turd Blues
TTITLE7=Who's Taking Care of Number One
TTITLE8=That Ain't Good
TTITLE9=Keep The Change
TTITLE10=Stock Market Blues
TTITLE11=I Think I'll Just Stay Here and Drink
EXTD=
EXTT0=
EXTT1=
EXTT2=
EXTT3=
EXTT4=
EXTT5=
EXTT6=
EXTT7=
EXTT8=
EXTT9=
EXTT10=
EXTT11=
PLAYORDER=
